<mxfile host="Electron" modified="2024-05-14T23:08:05.610Z" agent="Mozilla/5.0 (Windows NT 10.0; Win64; x64) AppleWebKit/537.36 (KHTML, like Gecko) draw.io/24.2.5 Chrome/120.0.6099.109 Electron/28.1.0 Safari/537.36" etag="SKnc12h4R_npZmpUO_VQ" version="24.2.5" type="device">
  <diagram name="Страница — 1" id="_YT7PHUOXeBheeRRoQpZ">
    <mxGraphModel dx="842" dy="568" grid="1" gridSize="10" guides="1" tooltips="1" connect="1" arrows="1" fold="1" page="1" pageScale="1" pageWidth="827" pageHeight="1169" math="0" shadow="0">
      <root>
        <mxCell id="0" />
        <mxCell id="1" parent="0" />
        <mxCell id="enK5_hoESkZXo2wWHf5g-1" value=":Приём команд" style="shape=umlLifeline;perimeter=lifelinePerimeter;whiteSpace=wrap;html=1;container=1;dropTarget=0;collapsible=0;recursiveResize=0;outlineConnect=0;portConstraint=eastwest;newEdgeStyle={&quot;curved&quot;:0,&quot;rounded&quot;:0};" vertex="1" parent="1">
          <mxGeometry x="110" y="80" width="100" height="400" as="geometry" />
        </mxCell>
        <mxCell id="enK5_hoESkZXo2wWHf5g-13" value="" style="html=1;points=[[0,0,0,0,5],[0,1,0,0,-5],[1,0,0,0,5],[1,1,0,0,-5]];perimeter=orthogonalPerimeter;outlineConnect=0;targetShapes=umlLifeline;portConstraint=eastwest;newEdgeStyle={&quot;curved&quot;:0,&quot;rounded&quot;:0};" vertex="1" parent="enK5_hoESkZXo2wWHf5g-1">
          <mxGeometry x="45" y="60" width="10" height="330" as="geometry" />
        </mxCell>
        <mxCell id="enK5_hoESkZXo2wWHf5g-2" value=":Валидаторы" style="shape=umlLifeline;perimeter=lifelinePerimeter;whiteSpace=wrap;html=1;container=1;dropTarget=0;collapsible=0;recursiveResize=0;outlineConnect=0;portConstraint=eastwest;newEdgeStyle={&quot;curved&quot;:0,&quot;rounded&quot;:0};" vertex="1" parent="1">
          <mxGeometry x="270" y="80" width="100" height="400" as="geometry" />
        </mxCell>
        <mxCell id="enK5_hoESkZXo2wWHf5g-14" value="" style="html=1;points=[[0,0,0,0,5],[0,1,0,0,-5],[1,0,0,0,5],[1,1,0,0,-5]];perimeter=orthogonalPerimeter;outlineConnect=0;targetShapes=umlLifeline;portConstraint=eastwest;newEdgeStyle={&quot;curved&quot;:0,&quot;rounded&quot;:0};" vertex="1" parent="enK5_hoESkZXo2wWHf5g-2">
          <mxGeometry x="45" y="70" width="10" height="80" as="geometry" />
        </mxCell>
        <mxCell id="enK5_hoESkZXo2wWHf5g-39" value="" style="html=1;points=[[0,0,0,0,5],[0,1,0,0,-5],[1,0,0,0,5],[1,1,0,0,-5]];perimeter=orthogonalPerimeter;outlineConnect=0;targetShapes=umlLifeline;portConstraint=eastwest;newEdgeStyle={&quot;curved&quot;:0,&quot;rounded&quot;:0};" vertex="1" parent="enK5_hoESkZXo2wWHf5g-2">
          <mxGeometry x="45" y="170" width="10" height="80" as="geometry" />
        </mxCell>
        <mxCell id="enK5_hoESkZXo2wWHf5g-40" value="Есть такой email?" style="html=1;verticalAlign=bottom;endArrow=block;curved=0;rounded=0;entryX=0;entryY=0;entryDx=0;entryDy=5;" edge="1" parent="enK5_hoESkZXo2wWHf5g-2" target="enK5_hoESkZXo2wWHf5g-39">
          <mxGeometry x="-0.2667" relative="1" as="geometry">
            <mxPoint x="-105" y="175" as="sourcePoint" />
            <mxPoint as="offset" />
          </mxGeometry>
        </mxCell>
        <mxCell id="enK5_hoESkZXo2wWHf5g-41" value="Нет" style="html=1;verticalAlign=bottom;endArrow=open;dashed=1;endSize=8;curved=0;rounded=0;exitX=0;exitY=1;exitDx=0;exitDy=-5;" edge="1" parent="enK5_hoESkZXo2wWHf5g-2" source="enK5_hoESkZXo2wWHf5g-39">
          <mxGeometry x="0.6667" relative="1" as="geometry">
            <mxPoint x="-105" y="245" as="targetPoint" />
            <mxPoint as="offset" />
          </mxGeometry>
        </mxCell>
        <mxCell id="enK5_hoESkZXo2wWHf5g-3" value=":Коннектор с базой данных" style="shape=umlLifeline;perimeter=lifelinePerimeter;whiteSpace=wrap;html=1;container=1;dropTarget=0;collapsible=0;recursiveResize=0;outlineConnect=0;portConstraint=eastwest;newEdgeStyle={&quot;curved&quot;:0,&quot;rounded&quot;:0};" vertex="1" parent="1">
          <mxGeometry x="590" y="80" width="100" height="400" as="geometry" />
        </mxCell>
        <mxCell id="enK5_hoESkZXo2wWHf5g-21" value="" style="html=1;points=[[0,0,0,0,5],[0,1,0,0,-5],[1,0,0,0,5],[1,1,0,0,-5]];perimeter=orthogonalPerimeter;outlineConnect=0;targetShapes=umlLifeline;portConstraint=eastwest;newEdgeStyle={&quot;curved&quot;:0,&quot;rounded&quot;:0};" vertex="1" parent="enK5_hoESkZXo2wWHf5g-3">
          <mxGeometry x="44" y="85" width="10" height="50" as="geometry" />
        </mxCell>
        <mxCell id="enK5_hoESkZXo2wWHf5g-22" value="Получить информацию о пользователе" style="html=1;verticalAlign=bottom;endArrow=block;curved=0;rounded=0;entryX=0;entryY=0;entryDx=0;entryDy=5;" edge="1" parent="enK5_hoESkZXo2wWHf5g-3" target="enK5_hoESkZXo2wWHf5g-21">
          <mxGeometry x="-0.3204" relative="1" as="geometry">
            <mxPoint x="-265" y="90" as="sourcePoint" />
            <mxPoint as="offset" />
          </mxGeometry>
        </mxCell>
        <mxCell id="enK5_hoESkZXo2wWHf5g-23" value="Информация о пользователе" style="html=1;verticalAlign=bottom;endArrow=open;dashed=1;endSize=8;curved=0;rounded=0;exitX=0;exitY=1;exitDx=0;exitDy=-5;" edge="1" parent="enK5_hoESkZXo2wWHf5g-3" source="enK5_hoESkZXo2wWHf5g-21">
          <mxGeometry x="0.4498" relative="1" as="geometry">
            <mxPoint x="-265" y="130" as="targetPoint" />
            <mxPoint as="offset" />
          </mxGeometry>
        </mxCell>
        <mxCell id="enK5_hoESkZXo2wWHf5g-42" value="" style="html=1;points=[[0,0,0,0,5],[0,1,0,0,-5],[1,0,0,0,5],[1,1,0,0,-5]];perimeter=orthogonalPerimeter;outlineConnect=0;targetShapes=umlLifeline;portConstraint=eastwest;newEdgeStyle={&quot;curved&quot;:0,&quot;rounded&quot;:0};" vertex="1" parent="enK5_hoESkZXo2wWHf5g-3">
          <mxGeometry x="44" y="180" width="10" height="50" as="geometry" />
        </mxCell>
        <mxCell id="enK5_hoESkZXo2wWHf5g-43" value="Получить пользователя по email" style="html=1;verticalAlign=bottom;endArrow=block;curved=0;rounded=0;entryX=0;entryY=0;entryDx=0;entryDy=5;" edge="1" parent="enK5_hoESkZXo2wWHf5g-3" target="enK5_hoESkZXo2wWHf5g-42">
          <mxGeometry x="-0.4498" y="5" relative="1" as="geometry">
            <mxPoint x="-265" y="185" as="sourcePoint" />
            <mxPoint as="offset" />
          </mxGeometry>
        </mxCell>
        <mxCell id="enK5_hoESkZXo2wWHf5g-44" value="Пусто" style="html=1;verticalAlign=bottom;endArrow=open;dashed=1;endSize=8;curved=0;rounded=0;exitX=0;exitY=1;exitDx=0;exitDy=-5;" edge="1" parent="enK5_hoESkZXo2wWHf5g-3" source="enK5_hoESkZXo2wWHf5g-42">
          <mxGeometry x="0.7735" y="-5" relative="1" as="geometry">
            <mxPoint x="-265" y="225" as="targetPoint" />
            <mxPoint as="offset" />
          </mxGeometry>
        </mxCell>
        <mxCell id="enK5_hoESkZXo2wWHf5g-54" value="" style="html=1;points=[[0,0,0,0,5],[0,1,0,0,-5],[1,0,0,0,5],[1,1,0,0,-5]];perimeter=orthogonalPerimeter;outlineConnect=0;targetShapes=umlLifeline;portConstraint=eastwest;newEdgeStyle={&quot;curved&quot;:0,&quot;rounded&quot;:0};" vertex="1" parent="enK5_hoESkZXo2wWHf5g-3">
          <mxGeometry x="44" y="280" width="10" height="50" as="geometry" />
        </mxCell>
        <mxCell id="enK5_hoESkZXo2wWHf5g-4" value=":Обработчики команд" style="shape=umlLifeline;perimeter=lifelinePerimeter;whiteSpace=wrap;html=1;container=1;dropTarget=0;collapsible=0;recursiveResize=0;outlineConnect=0;portConstraint=eastwest;newEdgeStyle={&quot;curved&quot;:0,&quot;rounded&quot;:0};" vertex="1" parent="1">
          <mxGeometry x="430" y="80" width="100" height="400" as="geometry" />
        </mxCell>
        <mxCell id="enK5_hoESkZXo2wWHf5g-50" value="" style="html=1;points=[[0,0,0,0,5],[0,1,0,0,-5],[1,0,0,0,5],[1,1,0,0,-5]];perimeter=orthogonalPerimeter;outlineConnect=0;targetShapes=umlLifeline;portConstraint=eastwest;newEdgeStyle={&quot;curved&quot;:0,&quot;rounded&quot;:0};" vertex="1" parent="enK5_hoESkZXo2wWHf5g-4">
          <mxGeometry x="45" y="270" width="10" height="100" as="geometry" />
        </mxCell>
        <mxCell id="enK5_hoESkZXo2wWHf5g-5" value=":Компонент оповещения" style="shape=umlLifeline;perimeter=lifelinePerimeter;whiteSpace=wrap;html=1;container=1;dropTarget=0;collapsible=0;recursiveResize=0;outlineConnect=0;portConstraint=eastwest;newEdgeStyle={&quot;curved&quot;:0,&quot;rounded&quot;:0};" vertex="1" parent="1">
          <mxGeometry x="910" y="80" width="100" height="400" as="geometry" />
        </mxCell>
        <mxCell id="enK5_hoESkZXo2wWHf5g-62" value="" style="html=1;points=[[0,0,0,0,5],[0,1,0,0,-5],[1,0,0,0,5],[1,1,0,0,-5]];perimeter=orthogonalPerimeter;outlineConnect=0;targetShapes=umlLifeline;portConstraint=eastwest;newEdgeStyle={&quot;curved&quot;:0,&quot;rounded&quot;:0};" vertex="1" parent="enK5_hoESkZXo2wWHf5g-5">
          <mxGeometry x="45" y="340" width="10" height="30" as="geometry" />
        </mxCell>
        <mxCell id="enK5_hoESkZXo2wWHf5g-6" value="" style="shape=umlLifeline;perimeter=lifelinePerimeter;whiteSpace=wrap;html=1;container=1;dropTarget=0;collapsible=0;recursiveResize=0;outlineConnect=0;portConstraint=eastwest;newEdgeStyle={&quot;curved&quot;:0,&quot;rounded&quot;:0};participant=umlActor;" vertex="1" parent="1">
          <mxGeometry x="790" y="80" width="20" height="400" as="geometry" />
        </mxCell>
        <mxCell id="enK5_hoESkZXo2wWHf5g-27" value="" style="html=1;points=[[0,0,0,0,5],[0,1,0,0,-5],[1,0,0,0,5],[1,1,0,0,-5]];perimeter=orthogonalPerimeter;outlineConnect=0;targetShapes=umlLifeline;portConstraint=eastwest;newEdgeStyle={&quot;curved&quot;:0,&quot;rounded&quot;:0};" vertex="1" parent="enK5_hoESkZXo2wWHf5g-6">
          <mxGeometry x="5" y="92.5" width="10" height="35" as="geometry" />
        </mxCell>
        <mxCell id="enK5_hoESkZXo2wWHf5g-46" value="" style="html=1;points=[[0,0,0,0,5],[0,1,0,0,-5],[1,0,0,0,5],[1,1,0,0,-5]];perimeter=orthogonalPerimeter;outlineConnect=0;targetShapes=umlLifeline;portConstraint=eastwest;newEdgeStyle={&quot;curved&quot;:0,&quot;rounded&quot;:0};" vertex="1" parent="enK5_hoESkZXo2wWHf5g-6">
          <mxGeometry x="5" y="187.5" width="10" height="35" as="geometry" />
        </mxCell>
        <mxCell id="enK5_hoESkZXo2wWHf5g-47" value="" style="html=1;verticalAlign=bottom;endArrow=block;curved=0;rounded=0;entryX=0;entryY=0;entryDx=0;entryDy=5;entryPerimeter=0;" edge="1" parent="enK5_hoESkZXo2wWHf5g-6" target="enK5_hoESkZXo2wWHf5g-46">
          <mxGeometry x="-0.3204" relative="1" as="geometry">
            <mxPoint x="-146" y="193" as="sourcePoint" />
            <mxPoint x="-146" y="195" as="targetPoint" />
            <mxPoint as="offset" />
          </mxGeometry>
        </mxCell>
        <mxCell id="enK5_hoESkZXo2wWHf5g-48" value="" style="html=1;verticalAlign=bottom;endArrow=open;dashed=1;endSize=8;curved=0;rounded=0;exitX=0;exitY=1;exitDx=0;exitDy=-5;exitPerimeter=0;" edge="1" parent="enK5_hoESkZXo2wWHf5g-6" source="enK5_hoESkZXo2wWHf5g-46">
          <mxGeometry x="0.6667" relative="1" as="geometry">
            <mxPoint x="-146" y="218" as="targetPoint" />
            <mxPoint x="-465" y="250" as="sourcePoint" />
            <mxPoint as="offset" />
          </mxGeometry>
        </mxCell>
        <mxCell id="enK5_hoESkZXo2wWHf5g-59" value="" style="html=1;points=[[0,0,0,0,5],[0,1,0,0,-5],[1,0,0,0,5],[1,1,0,0,-5]];perimeter=orthogonalPerimeter;outlineConnect=0;targetShapes=umlLifeline;portConstraint=eastwest;newEdgeStyle={&quot;curved&quot;:0,&quot;rounded&quot;:0};" vertex="1" parent="enK5_hoESkZXo2wWHf5g-6">
          <mxGeometry x="5" y="290" width="10" height="35" as="geometry" />
        </mxCell>
        <mxCell id="enK5_hoESkZXo2wWHf5g-60" value="" style="html=1;verticalAlign=bottom;endArrow=block;curved=0;rounded=0;entryX=0;entryY=0;entryDx=0;entryDy=5;entryPerimeter=0;" edge="1" parent="enK5_hoESkZXo2wWHf5g-6" target="enK5_hoESkZXo2wWHf5g-59">
          <mxGeometry x="-0.3204" relative="1" as="geometry">
            <mxPoint x="-146" y="295.5" as="sourcePoint" />
            <mxPoint x="-146" y="297.5" as="targetPoint" />
            <mxPoint as="offset" />
          </mxGeometry>
        </mxCell>
        <mxCell id="enK5_hoESkZXo2wWHf5g-61" value="" style="html=1;verticalAlign=bottom;endArrow=open;dashed=1;endSize=8;curved=0;rounded=0;exitX=0;exitY=1;exitDx=0;exitDy=-5;exitPerimeter=0;" edge="1" parent="enK5_hoESkZXo2wWHf5g-6" source="enK5_hoESkZXo2wWHf5g-59">
          <mxGeometry x="0.6667" relative="1" as="geometry">
            <mxPoint x="-146" y="320.5" as="targetPoint" />
            <mxPoint x="-465" y="352.5" as="sourcePoint" />
            <mxPoint as="offset" />
          </mxGeometry>
        </mxCell>
        <mxCell id="enK5_hoESkZXo2wWHf5g-7" value="" style="shape=umlLifeline;perimeter=lifelinePerimeter;whiteSpace=wrap;html=1;container=1;dropTarget=0;collapsible=0;recursiveResize=0;outlineConnect=0;portConstraint=eastwest;newEdgeStyle={&quot;curved&quot;:0,&quot;rounded&quot;:0};participant=umlActor;" vertex="1" parent="1">
          <mxGeometry x="1110" y="80" width="20" height="400" as="geometry" />
        </mxCell>
        <mxCell id="enK5_hoESkZXo2wWHf5g-8" value="СУБД" style="text;html=1;align=center;verticalAlign=middle;whiteSpace=wrap;rounded=0;" vertex="1" parent="1">
          <mxGeometry x="800" y="120" width="40" height="30" as="geometry" />
        </mxCell>
        <mxCell id="enK5_hoESkZXo2wWHf5g-9" value="Сервис отправки сообщений" style="text;html=1;align=center;verticalAlign=middle;whiteSpace=wrap;rounded=0;" vertex="1" parent="1">
          <mxGeometry x="1120" y="120" width="70" height="40" as="geometry" />
        </mxCell>
        <mxCell id="enK5_hoESkZXo2wWHf5g-10" value="" style="ellipse;html=1;shape=startState;fillColor=#000000;strokeColor=#000000;" vertex="1" parent="1">
          <mxGeometry x="20" y="130" width="30" height="30" as="geometry" />
        </mxCell>
        <mxCell id="enK5_hoESkZXo2wWHf5g-11" value="" style="edgeStyle=orthogonalEdgeStyle;html=1;verticalAlign=bottom;endArrow=open;endSize=8;strokeColor=#000000;rounded=0;entryX=0;entryY=0;entryDx=0;entryDy=5;entryPerimeter=0;" edge="1" source="enK5_hoESkZXo2wWHf5g-10" parent="1" target="enK5_hoESkZXo2wWHf5g-13">
          <mxGeometry relative="1" as="geometry">
            <mxPoint x="35" y="210" as="targetPoint" />
            <Array as="points">
              <mxPoint x="100" y="145" />
              <mxPoint x="100" y="145" />
            </Array>
          </mxGeometry>
        </mxCell>
        <mxCell id="enK5_hoESkZXo2wWHf5g-12" value="POST /user" style="edgeLabel;html=1;align=center;verticalAlign=middle;resizable=0;points=[];" vertex="1" connectable="0" parent="enK5_hoESkZXo2wWHf5g-11">
          <mxGeometry x="-0.1947" relative="1" as="geometry">
            <mxPoint x="-14" y="-10" as="offset" />
          </mxGeometry>
        </mxCell>
        <mxCell id="enK5_hoESkZXo2wWHf5g-15" value="Инициатор администратор?" style="html=1;verticalAlign=bottom;endArrow=block;curved=0;rounded=0;entryX=0;entryY=0;entryDx=0;entryDy=5;" edge="1" target="enK5_hoESkZXo2wWHf5g-14" parent="1" source="enK5_hoESkZXo2wWHf5g-13">
          <mxGeometry relative="1" as="geometry">
            <mxPoint x="245" y="155" as="sourcePoint" />
          </mxGeometry>
        </mxCell>
        <mxCell id="enK5_hoESkZXo2wWHf5g-16" value="Да" style="html=1;verticalAlign=bottom;endArrow=open;dashed=1;endSize=8;curved=0;rounded=0;exitX=0;exitY=1;exitDx=0;exitDy=-5;" edge="1" source="enK5_hoESkZXo2wWHf5g-14" parent="1" target="enK5_hoESkZXo2wWHf5g-13">
          <mxGeometry x="0.6667" relative="1" as="geometry">
            <mxPoint x="245" y="225" as="targetPoint" />
            <mxPoint as="offset" />
          </mxGeometry>
        </mxCell>
        <mxCell id="enK5_hoESkZXo2wWHf5g-28" value="" style="html=1;verticalAlign=bottom;endArrow=block;curved=0;rounded=0;entryX=0;entryY=0;entryDx=0;entryDy=5;entryPerimeter=0;" edge="1" parent="1" source="enK5_hoESkZXo2wWHf5g-21" target="enK5_hoESkZXo2wWHf5g-27">
          <mxGeometry x="-0.3204" relative="1" as="geometry">
            <mxPoint x="335" y="180" as="sourcePoint" />
            <mxPoint x="644" y="180" as="targetPoint" />
            <mxPoint as="offset" />
          </mxGeometry>
        </mxCell>
        <mxCell id="enK5_hoESkZXo2wWHf5g-29" value="" style="html=1;verticalAlign=bottom;endArrow=open;dashed=1;endSize=8;curved=0;rounded=0;exitX=0;exitY=1;exitDx=0;exitDy=-5;exitPerimeter=0;" edge="1" parent="1" source="enK5_hoESkZXo2wWHf5g-27" target="enK5_hoESkZXo2wWHf5g-21">
          <mxGeometry x="0.6667" relative="1" as="geometry">
            <mxPoint x="175" y="235" as="targetPoint" />
            <mxPoint x="325" y="235" as="sourcePoint" />
            <mxPoint as="offset" />
          </mxGeometry>
        </mxCell>
        <mxCell id="enK5_hoESkZXo2wWHf5g-51" value="Обработать команду" style="html=1;verticalAlign=bottom;endArrow=block;curved=0;rounded=0;entryX=0;entryY=0;entryDx=0;entryDy=5;entryPerimeter=0;" edge="1" parent="1" source="enK5_hoESkZXo2wWHf5g-13" target="enK5_hoESkZXo2wWHf5g-50">
          <mxGeometry x="-0.6452" relative="1" as="geometry">
            <mxPoint x="175" y="265" as="sourcePoint" />
            <mxPoint x="325" y="265" as="targetPoint" />
            <mxPoint as="offset" />
          </mxGeometry>
        </mxCell>
        <mxCell id="enK5_hoESkZXo2wWHf5g-52" value="HTTP-ответ" style="html=1;verticalAlign=bottom;endArrow=open;dashed=1;endSize=8;curved=0;rounded=0;exitX=0;exitY=1;exitDx=0;exitDy=-5;exitPerimeter=0;" edge="1" parent="1" source="enK5_hoESkZXo2wWHf5g-50" target="enK5_hoESkZXo2wWHf5g-13">
          <mxGeometry x="0.7097" relative="1" as="geometry">
            <mxPoint x="175" y="335" as="targetPoint" />
            <mxPoint as="offset" />
            <mxPoint x="325" y="335" as="sourcePoint" />
          </mxGeometry>
        </mxCell>
        <mxCell id="enK5_hoESkZXo2wWHf5g-55" value="" style="html=1;verticalAlign=bottom;endArrow=block;curved=0;rounded=0;entryX=0;entryY=0;entryDx=0;entryDy=5;entryPerimeter=0;" edge="1" parent="1" source="enK5_hoESkZXo2wWHf5g-50" target="enK5_hoESkZXo2wWHf5g-54">
          <mxGeometry x="-0.3204" relative="1" as="geometry">
            <mxPoint x="654" y="283" as="sourcePoint" />
            <mxPoint x="805" y="283" as="targetPoint" />
            <mxPoint as="offset" />
          </mxGeometry>
        </mxCell>
        <mxCell id="enK5_hoESkZXo2wWHf5g-57" value="Записать пользователя" style="edgeLabel;html=1;align=center;verticalAlign=middle;resizable=0;points=[];" vertex="1" connectable="0" parent="enK5_hoESkZXo2wWHf5g-55">
          <mxGeometry x="-0.4028" y="2" relative="1" as="geometry">
            <mxPoint x="20" y="-13" as="offset" />
          </mxGeometry>
        </mxCell>
        <mxCell id="enK5_hoESkZXo2wWHf5g-56" value="" style="html=1;verticalAlign=bottom;endArrow=open;dashed=1;endSize=8;curved=0;rounded=0;exitX=0;exitY=1;exitDx=0;exitDy=-5;exitPerimeter=0;" edge="1" parent="1" source="enK5_hoESkZXo2wWHf5g-54" target="enK5_hoESkZXo2wWHf5g-50">
          <mxGeometry x="0.6667" relative="1" as="geometry">
            <mxPoint x="654" y="308" as="targetPoint" />
            <mxPoint x="805" y="308" as="sourcePoint" />
            <mxPoint as="offset" />
          </mxGeometry>
        </mxCell>
        <mxCell id="enK5_hoESkZXo2wWHf5g-58" value="id пользователя" style="edgeLabel;html=1;align=center;verticalAlign=middle;resizable=0;points=[];" vertex="1" connectable="0" parent="enK5_hoESkZXo2wWHf5g-56">
          <mxGeometry x="0.6805" relative="1" as="geometry">
            <mxPoint x="32" y="-20" as="offset" />
          </mxGeometry>
        </mxCell>
        <mxCell id="enK5_hoESkZXo2wWHf5g-63" value="" style="html=1;verticalAlign=bottom;endArrow=open;curved=0;rounded=0;entryX=0;entryY=0;entryDx=0;entryDy=5;entryPerimeter=0;endFill=0;" edge="1" parent="1" source="enK5_hoESkZXo2wWHf5g-50" target="enK5_hoESkZXo2wWHf5g-62">
          <mxGeometry x="-0.3204" relative="1" as="geometry">
            <mxPoint x="654" y="385.5" as="sourcePoint" />
            <mxPoint x="805" y="385" as="targetPoint" />
            <mxPoint as="offset" />
          </mxGeometry>
        </mxCell>
        <mxCell id="enK5_hoESkZXo2wWHf5g-64" value="" style="html=1;verticalAlign=bottom;endArrow=open;curved=0;rounded=0;endFill=0;exitX=1;exitY=1;exitDx=0;exitDy=-5;exitPerimeter=0;" edge="1" parent="1" source="enK5_hoESkZXo2wWHf5g-62" target="enK5_hoESkZXo2wWHf5g-7">
          <mxGeometry x="-0.3204" relative="1" as="geometry">
            <mxPoint x="495" y="435" as="sourcePoint" />
            <mxPoint x="965" y="435" as="targetPoint" />
            <mxPoint as="offset" />
          </mxGeometry>
        </mxCell>
        <mxCell id="enK5_hoESkZXo2wWHf5g-65" value="" style="ellipse;html=1;shape=endState;fillColor=#000000;strokeColor=#000000;" vertex="1" parent="1">
          <mxGeometry x="20" y="449" width="30" height="30" as="geometry" />
        </mxCell>
        <mxCell id="enK5_hoESkZXo2wWHf5g-66" value="HTTP-ответ" style="html=1;verticalAlign=bottom;endArrow=open;dashed=1;endSize=8;curved=0;rounded=0;exitX=0;exitY=1;exitDx=0;exitDy=-5;exitPerimeter=0;entryX=1;entryY=0.5;entryDx=0;entryDy=0;" edge="1" parent="1" source="enK5_hoESkZXo2wWHf5g-13" target="enK5_hoESkZXo2wWHf5g-65">
          <mxGeometry x="0.2382" relative="1" as="geometry">
            <mxPoint x="175" y="455" as="targetPoint" />
            <mxPoint as="offset" />
            <mxPoint x="485" y="455" as="sourcePoint" />
          </mxGeometry>
        </mxCell>
      </root>
    </mxGraphModel>
  </diagram>
</mxfile>
